<svg width="16" height="16" viewBox="0 0 16 16" fill="none" xmlns="http://www.w3.org/2000/svg">
<rect width="16" height="16" fill="#F1935C"/>
<path d="M4.6553 7.32114H6.2144V9H5.64527L5.48495 8.67073C5.22577 8.89024 4.90646 9 4.52704 9C4.25717 9 4.00868 8.94986 3.78156 8.84959C3.55444 8.74932 3.3674 8.59214 3.22044 8.37805C3.07348 8.16125 3 7.9065 3 7.61382V7.38618C3 6.94444 3.15364 6.60298 3.46092 6.36179C3.77087 6.1206 4.16365 6 4.63926 6C5.02136 6 5.34333 6.07859 5.60519 6.23577C5.86971 6.39024 6.04339 6.60705 6.12623 6.88618L5.19237 7.06911C5.14961 6.95528 5.07613 6.8645 4.97193 6.79675C4.87039 6.72629 4.75282 6.69106 4.61922 6.69106C4.45356 6.69106 4.31328 6.7439 4.19839 6.84959C4.08616 6.95257 4.03005 7.10976 4.03005 7.32114V7.68293C4.03005 7.88618 4.08616 8.04201 4.19839 8.15041C4.31328 8.25881 4.45891 8.31301 4.63526 8.31301C4.89711 8.31301 5.08148 8.18022 5.18836 7.91463H4.6553V7.32114Z" fill="white"/>
<path d="M6.39258 9V6H7.38447L8.62743 7.43571H8.63566V6H9.60698V9H8.64801L7.37624 7.51714H7.3639V9H6.39258Z" fill="white"/>
<path d="M12.029 9L11.9189 8.60851H10.8004L10.6834 9H9.78516L10.8417 6H11.9671L12.9996 9H12.029ZM11.0069 7.90213H11.7159L11.3751 6.70638H11.3614L11.0069 7.90213Z" fill="white"/>
</svg>
